name C:\Users\tom_v\MusculoskeletalSpecialization\ResultsSprinting\Case_6\motion.mot
datacolumns 32
datarows 7
range 0.13875453 0.17205561
endheader 
time	pelvis_tilt	pelvis_list	pelvis_rotation	pelvis_tx	pelvis_ty	pelvis_tz	hip_flexion_r	hip_adduction_r	hip_rotation_r	knee_angle_r	ankle_angle_r	subtalar_angle_r	mtp_angle_r	hip_flexion_l	hip_adduction_l	hip_rotation_l	knee_angle_l	ankle_angle_l	subtalar_angle_l	mtp_angle_l	lumbar_extension	lumbar_bending	lumbar_rotation	arm_flex_r	arm_add_r	arm_rot_r	elbow_flex_r	arm_flex_l	arm_add_l	arm_rot_l	elbow_flex_l	
          0.13875453	        -15.06126298	          2.53477420	         -2.40814389	          0.46007858	          0.91994642	          0.00061222	         11.54009394	          1.56453634	          3.80963369	        -22.71445472	         -0.38754092	         -8.22698906	         34.51274631	         41.77440532	          5.23969082	         -5.19842347	        -61.33584572	          3.78316234	         -5.87025860	          1.43995771	         -5.85417338	         -1.52952264	          7.38706787	          4.19455838	         -1.62242272	        -11.07114973	         46.79184697	         -2.60836974	         -4.02438155	         -0.00143761	         71.59184908	
          0.14430471	        -15.06642763	          2.68482966	         -2.54144463	          0.47903552	          0.92272559	          0.00091728	         10.29108021	          1.15371771	          3.43509044	        -22.22400458	         -2.92004360	         -7.73313859	         36.21788774	         42.44474993	          5.44972319	         -5.29944714	        -60.13665724	          3.85754587	         -5.95775176	          1.34111217	         -5.75970462	         -1.89378073	          7.62508722	          4.13118103	         -1.67491833	        -10.84233399	         46.54159195	         -2.89550202	         -4.00614095	         -0.16155983	         72.29713726	
          0.14985489	        -15.07292671	          2.79842470	         -2.66307788	          0.49794341	          0.92540302	          0.00122593	          9.21754072	          0.79223713	          3.10161393	        -22.00235425	         -5.28673601	         -7.17315024	         37.33145247	         43.01800037	          5.59786914	         -5.35987879	        -58.76103749	          3.92589847	         -6.04711836	          1.24945077	         -5.67204529	         -2.21484277	          7.82775623	          4.17994180	         -1.72646806	        -10.57646273	         46.02874811	         -3.08061167	         -3.97589849	         -0.29923217	         72.70005807	
          0.15540507	        -15.08028769	          2.87735046	         -2.77262074	          0.51679317	          0.92795927	          0.00153793	          8.32576537	          0.48243291	          2.80133475	        -22.05265844	         -7.51714169	         -6.61373046	         37.88843245	         43.49182965	          5.68947709	         -5.38153771	        -57.22091495	          3.99190201	         -6.13912870	          1.16421937	         -5.59386102	         -2.49451593	          7.99434900	          4.34102562	         -1.77468411	        -10.27689563	         45.25789944	         -3.16211673	         -3.93532161	         -0.41325263	         72.80180984	
          0.16095525	        -15.08862008	          2.92580333	         -2.86976953	          0.53558413	          0.93037230	          0.00185270	          7.61002942	          0.22323321	          2.52627260	        -22.36374939	         -9.56991981	         -6.09162842	         37.82799373	         43.86409110	          5.73361821	         -5.36802074	        -55.52571525	          4.05686568	         -6.23390970	          1.08545013	         -5.52536223	         -2.73752110	          8.12510215	          4.61141663	         -1.81670100	         -9.94723683	         44.23618868	         -3.13952306	         -3.88629980	         -0.50212359	         72.60438751	
          0.16650543	        -15.09704226	          2.94374404	         -2.95239671	          0.55431811	          0.93261016	          0.00217496	          7.05655698	          0.02085005	          2.27510802	        -22.93067865	        -11.31107683	         -5.61717572	         36.97726595	         44.13446147	          5.73751407	         -5.31909667	        -53.68820553	          4.12167956	         -6.33235288	          1.01270907	         -5.46730364	         -2.94548537	          8.21960065	          4.98546840	         -1.84924059	         -9.59120957	         42.97606631	         -3.01351281	         -3.83118588	         -0.56470532	         72.11542537	
          0.17205561	        -15.10490791	          2.92610601	         -3.01760011	          0.57299663	          0.93463401	          0.00251275	          6.64553027	         -0.11642553	          2.05555934	        -23.73244536	        -12.68724078	         -5.16120089	         35.33756418	         44.30753214	          5.70169781	         -5.23276373	        -51.72761573	          4.18638708	         -6.43500849	          0.94581013	         -5.42000838	         -3.11522527	          8.27681064	          5.45663586	         -1.86942584	         -9.21153925	         41.49266352	         -2.78616911	         -3.77171379	         -0.60116183	         71.34632815	
